<svg id="visual" viewBox="0 0 960 540" width="960" height="540" xmlns="http://www.w3.org/2000/svg" xmlns:xlink="http://www.w3.org/1999/xlink" version="1.1"><rect width="960" height="540" fill="#04070a"></rect><g><g transform="translate(361 266)"><path d="M0 -89.8L77.8 -44.9L77.8 44.9L0 89.8L-77.8 44.9L-77.8 -44.9Z" fill="#b6c3c8"></path></g><g transform="translate(138 304)"><path d="M0 -84L72.7 -42L72.7 42L0 84L-72.7 42L-72.7 -42Z" fill="#b6c3c8"></path></g><g transform="translate(733 207)"><path d="M0 -70L60.6 -35L60.6 35L0 70L-60.6 35L-60.6 -35Z" fill="#b6c3c8"></path></g><g transform="translate(674 435)"><path d="M0 -69L59.8 -34.5L59.8 34.5L0 69L-59.8 34.5L-59.8 -34.5Z" fill="#b6c3c8"></path></g><g transform="translate(525 162)"><path d="M0 -70L60.6 -35L60.6 35L0 70L-60.6 35L-60.6 -35Z" fill="#b6c3c8"></path></g><g transform="translate(154 105)"><path d="M0 -86L74.5 -43L74.5 43L0 86L-74.5 43L-74.5 -43Z" fill="#b6c3c8"></path></g><g transform="translate(859 434)"><path d="M0 -88L76.2 -44L76.2 44L0 88L-76.2 44L-76.2 -44Z" fill="#b6c3c8"></path></g></g></svg>