<svg id="visual" viewBox="0 0 900 450" width="900" height="450" xmlns="http://www.w3.org/2000/svg" xmlns:xlink="http://www.w3.org/1999/xlink" version="1.1"><rect x="0" y="0" width="900" height="450" fill="#002233"></rect><path d="M0 295L21.5 297.3C43 299.7 86 304.3 128.8 302.3C171.7 300.3 214.3 291.7 257.2 294.3C300 297 343 311 385.8 325C428.7 339 471.3 353 514.2 353.5C557 354 600 341 642.8 338.7C685.7 336.3 728.3 344.7 771.2 345.3C814 346 857 339 878.5 335.5L900 332L900 451L878.5 451C857 451 814 451 771.2 451C728.3 451 685.7 451 642.8 451C600 451 557 451 514.2 451C471.3 451 428.7 451 385.8 451C343 451 300 451 257.2 451C214.3 451 171.7 451 128.8 451C86 451 43 451 21.5 451L0 451Z" fill="#0066FF" stroke-linecap="round" stroke-linejoin="miter"></path></svg>